<?xml version="1.0" standalone="no"?>
<!DOCTYPE svg PUBLIC "-//W3C//DTD SVG 20010904//EN"
 "http://www.w3.org/TR/2001/REC-SVG-20010904/DTD/svg10.dtd">
<svg version="1.0" xmlns="http://www.w3.org/2000/svg"
 width="940.000000pt" height="940.000000pt" viewBox="0 0 940.000000 940.000000"
 preserveAspectRatio="xMidYMid meet">
<metadata>
Created by potrace 1.14, written by Peter Selinger 2001-2017
</metadata>
<g transform="translate(0.000000,940.000000) scale(0.100000,-0.100000)"
fill="#000000" stroke="none">
<path d="M4667 6904 c-1 -1 -67 -5 -147 -8 -80 -4 -158 -8 -175 -10 -16 -2
-64 -7 -105 -11 -41 -4 -86 -8 -100 -10 -14 -2 -49 -7 -79 -10 -30 -4 -63 -9
-75 -11 -12 -2 -41 -7 -66 -10 -25 -3 -47 -8 -50 -9 -3 -2 -26 -6 -50 -10 -25
-3 -63 -11 -85 -16 -22 -5 -51 -12 -65 -15 -53 -11 -261 -64 -381 -98 -203
-57 -602 -229 -822 -354 -96 -55 -278 -183 -462 -324 -63 -49 -284 -278 -364
-378 -138 -171 -212 -298 -293 -500 -120 -297 -147 -634 -73 -920 22 -87 90
-272 140 -385 7 -16 28 -64 45 -105 80 -187 192 -385 388 -684 124 -190 166
-245 284 -369 37 -38 65 -74 62 -79 -3 -5 -1 -7 4 -6 14 4 153 -132 146 -143
-3 -5 -2 -8 3 -7 10 3 63 -36 63 -47 0 -4 -7 -5 -15 -2 -8 4 -17 2 -20 -3 -3
-5 8 -7 24 -5 20 3 35 -3 49 -18 11 -12 51 -44 90 -72 39 -27 71 -55 71 -62 1
-6 5 -15 11 -18 6 -4 7 1 3 12 -6 15 -5 16 9 3 9 -8 14 -18 11 -22 -2 -5 7 -8
21 -8 14 0 26 -5 26 -11 0 -5 -4 -8 -9 -5 -5 4 -6 -4 -3 -16 5 -19 7 -20 10
-6 4 22 22 24 22 2 0 -8 4 -13 9 -9 5 3 25 -3 43 -13 27 -16 33 -24 32 -50 -2
-36 3 -39 21 -15 12 16 15 16 53 -1 29 -13 39 -24 40 -41 0 -13 7 -33 16 -46
9 -13 16 -18 16 -12 0 7 -5 15 -11 19 -6 3 -9 15 -6 25 3 12 1 17 -5 12 -7 -4
-8 -1 -4 6 6 10 12 9 24 -1 10 -8 39 -25 67 -39 27 -13 55 -31 62 -39 7 -8 13
-11 13 -7 0 4 9 3 20 -3 11 -6 18 -15 15 -21 -4 -5 -1 -9 5 -9 6 0 9 -4 5 -10
-8 -14 -35 -1 -29 15 3 7 1 16 -5 20 -7 4 -8 -1 -5 -12 4 -11 -6 -5 -24 15
-31 32 -50 43 -36 20 5 -8 2 -9 -11 -4 -18 6 -18 6 1 -15 16 -19 17 -22 2 -16
-10 3 -20 3 -22 -2 -3 -4 0 -8 7 -8 41 -1 70 -22 55 -41 -8 -9 -7 -11 6 -6 21
8 20 17 -4 39 -31 28 -14 31 19 3 21 -19 27 -28 19 -36 -8 -8 -7 -13 6 -18 9
-4 20 -4 23 0 4 3 -1 6 -11 6 -9 0 -15 4 -12 8 10 17 51 5 63 -19 11 -21 10
-25 -10 -31 -21 -6 -21 -6 -1 -7 11 -1 26 5 33 12 11 10 14 9 18 -1 4 -10 8
-10 19 -1 11 9 15 8 20 -5 5 -13 9 -14 20 -5 8 6 11 15 8 20 -3 5 1 9 8 9 11
0 10 2 0 9 -11 7 -10 9 3 14 9 4 13 3 10 -3 -6 -9 8 -14 29 -11 4 1 13 -2 20
-7 6 -5 25 -13 41 -17 40 -11 44 -12 53 -15 4 -1 12 -2 17 -1 6 1 1 -5 -9 -14
-10 -8 -23 -12 -27 -9 -9 5 -13 -9 -10 -33 1 -7 -3 -13 -9 -13 -5 0 -10 4 -10
9 0 5 -3 17 -6 26 -4 10 -2 15 6 13 7 -2 15 3 18 11 3 10 0 12 -12 8 -9 -4
-15 -3 -11 2 6 11 -14 9 -32 -2 -9 -6 -11 -3 -6 9 4 10 2 15 -3 11 -6 -3 -16
-2 -24 3 -9 6 -22 -1 -42 -22 -30 -32 -38 -48 -13 -28 13 11 20 9 42 -11 14
-13 23 -18 19 -11 -4 6 -3 12 2 12 16 0 22 -13 11 -27 -19 -23 2 -14 23 10 14
15 18 17 14 5 -5 -18 16 -30 39 -21 9 3 15 2 14 -3 -3 -20 2 -34 12 -34 8 0 8
5 -1 15 -8 9 -9 15 -2 15 6 0 18 -10 26 -22 l15 -22 22 28 c29 37 35 27 9 -17
-24 -40 -13 -56 23 -33 21 14 24 14 39 -3 9 -11 14 -22 11 -25 -4 -3 -1 -6 5
-6 18 0 14 11 -15 42 -15 15 -22 28 -16 28 6 0 23 -14 37 -31 14 -17 26 -26
26 -21 0 5 -7 15 -15 22 -16 13 -21 35 -6 25 5 -3 12 -1 16 5 3 5 11 10 17 10
7 0 6 -5 -1 -14 -9 -11 -9 -20 -2 -34 6 -11 7 -22 4 -26 -3 -3 -1 -6 5 -6 16
0 15 23 0 38 -9 9 -8 16 6 30 17 16 18 16 12 -3 -3 -11 -1 -27 4 -35 5 -8 10
-11 10 -7 0 14 60 -50 60 -65 0 -10 3 -9 10 2 6 10 2 19 -16 30 -13 9 -21 19
-18 23 3 3 17 -1 30 -10 13 -8 24 -12 24 -8 0 4 7 2 15 -5 9 -7 18 -11 21 -8
2 3 -7 13 -21 22 -14 9 -25 22 -25 28 0 6 9 3 20 -7 17 -16 20 -16 15 -3 -5
13 -1 16 20 14 14 -2 32 2 38 9 12 12 47 16 47 6 0 -5 14 -7 83 -11 16 -1 16
-4 -4 -31 -24 -34 -37 -33 -19 1 8 15 8 20 1 16 -6 -4 -11 -3 -11 1 0 15 -38
12 -44 -3 -4 -11 -10 -12 -24 -5 -24 13 -37 2 -39 -34 l-1 -30 14 28 c8 15 19
27 25 27 6 0 1 -16 -11 -35 -21 -34 -21 -34 -1 -30 26 5 27 -3 4 -22 -16 -13
-16 -13 5 -3 23 11 25 37 3 33 -13 -4 -15 13 -2 22 5 3 12 1 16 -5 3 -5 15
-15 27 -21 12 -6 18 -7 14 -1 -9 14 20 22 33 9 6 -6 12 -20 12 -32 1 -17 2
-18 6 -2 3 10 -3 27 -11 36 -15 17 -15 19 0 32 14 12 19 10 37 -11 14 -18 18
-19 14 -7 -5 13 -3 17 5 14 7 -2 12 -11 10 -20 -3 -21 16 -31 32 -18 7 6 16 8
19 4 4 -3 7 -1 7 5 0 15 -6 15 -31 2 -24 -14 -26 5 -1 20 16 11 16 11 -1 6
-13 -4 -20 0 -24 14 -5 18 -7 19 -17 4 -11 -14 -13 -14 -27 2 -12 16 -12 17 3
11 13 -4 16 -2 12 11 -4 10 -2 13 3 7 7 -10 28 -13 96 -17 15 -1 27 -7 27 -15
0 -7 -5 -12 -12 -10 -6 1 -13 -7 -15 -18 -2 -15 -1 -16 5 -5 4 8 16 16 27 18
16 2 13 -4 -15 -29 -29 -27 -30 -29 -7 -15 15 9 32 14 37 11 5 -3 7 1 4 9 -4
9 0 14 10 12 19 -3 34 -16 18 -16 -7 0 -12 -5 -12 -10 0 -6 9 -5 23 3 26 16
61 15 81 -2 15 -13 11 -45 -4 -36 -5 3 -13 -3 -19 -12 -9 -17 -11 -17 -25 2
-8 11 -16 16 -16 10 -1 -5 -6 -1 -11 10 -7 17 -8 17 -6 2 1 -10 6 -18 10 -17
5 1 15 -7 23 -17 13 -17 15 -17 29 1 8 11 15 16 15 10 0 -5 7 -1 15 9 7 11 11
25 9 32 -5 11 30 45 47 45 6 0 5 -43 -2 -70 -6 -22 40 -21 52 2 6 11 8 22 5
26 -3 3 -6 0 -6 -7 0 -7 -4 -9 -10 -6 -5 3 -7 0 -5 -7 3 -8 -2 -14 -14 -15
-24 -2 -18 23 10 38 11 5 19 15 18 22 0 9 -2 9 -6 0 -6 -17 -36 -17 -31 -1 7
20 58 17 79 -5 10 -12 20 -24 20 -29 1 -4 2 -14 3 -20 1 -7 12 -12 24 -11 15
2 21 -1 16 -9 -4 -7 -3 -8 5 -4 18 12 2 28 -21 20 -12 -3 -18 -2 -15 3 4 6 0
19 -8 29 -8 10 -14 26 -14 34 0 12 2 12 13 -2 14 -19 32 -25 21 -8 -3 6 -1 10
4 10 6 0 11 -6 11 -12 0 -10 2 -10 8 -1 8 12 90 12 110 -1 6 -3 13 0 15 6 3 8
6 6 6 -4 1 -10 7 -18 14 -18 8 0 7 -4 -3 -10 -10 -6 -11 -10 -3 -10 7 0 20 12
30 26 l17 26 9 -23 c8 -24 9 -24 25 -4 9 11 26 21 37 23 17 2 15 -1 -8 -19
-15 -11 -25 -25 -21 -30 9 -15 27 -10 20 6 -8 23 11 18 28 -7 9 -12 16 -17 16
-11 0 6 -7 16 -15 23 -17 14 -1 38 25 36 19 -1 39 -19 33 -28 -2 -4 3 -5 12
-2 14 6 14 8 -2 20 -17 12 -17 13 5 14 22 0 25 -5 24 -50 -1 -25 -1 -25 6 -2
4 13 11 23 17 22 5 -1 11 4 13 12 3 10 2 10 -6 -1 -7 -10 -11 -10 -17 -1 -11
18 -2 21 67 26 35 2 78 5 96 8 31 3 43 -6 22 -19 -13 -8 6 -35 24 -35 6 0 3 5
-6 11 -15 8 -16 13 -5 29 6 11 21 20 32 20 12 0 27 6 34 13 11 10 13 10 7 0
-9 -16 -5 -16 29 -3 17 7 24 7 20 0 -3 -6 -1 -10 4 -10 6 0 11 6 11 13 1 6 7
1 16 -13 14 -23 14 -23 9 -2 -5 19 -2 22 22 23 61 4 89 8 116 18 37 14 37 14
31 -7 -4 -13 -1 -11 13 5 18 22 18 22 43 3 34 -26 52 -25 20 1 -15 13 -18 19
-8 15 9 -2 19 0 22 7 2 7 5 3 5 -7 1 -19 2 -19 14 -2 13 17 59 30 110 29 15 0
27 3 27 7 0 16 42 23 51 9 7 -11 9 -10 9 4 0 16 2 17 15 3 8 -8 15 -21 15 -28
0 -10 3 -9 10 2 6 10 5 17 -5 23 -19 10 -20 28 -1 21 8 -3 17 0 21 6 5 8 11 7
23 -2 9 -7 13 -8 9 -2 -3 6 4 16 17 22 20 9 25 8 30 -5 5 -11 2 -14 -9 -9 -9
3 -14 2 -10 -3 3 -5 0 -11 -7 -13 -7 -3 -5 -7 6 -11 9 -4 15 -3 12 2 -3 5 1
11 9 15 8 3 12 12 9 20 -5 14 26 39 43 34 4 -1 18 3 31 10 12 7 27 10 32 7 6
-3 10 -2 10 4 0 18 35 17 63 -2 15 -10 27 -14 27 -8 0 6 -5 11 -11 11 -5 0 -7
5 -3 12 5 7 11 5 21 -7 7 -11 13 -14 13 -8 0 17 -27 36 -35 23 -8 -12 -25 -13
-25 -1 0 7 47 25 57 22 2 0 18 8 37 18 33 19 46 18 46 -1 0 -5 -4 -7 -8 -4 -5
3 -9 -1 -9 -9 0 -22 15 -18 22 5 4 11 10 18 15 15 5 -3 7 -12 4 -19 -3 -7 2
-16 11 -20 16 -6 33 19 21 31 -3 4 -6 -1 -6 -11 0 -9 -4 -15 -10 -11 -5 3 -7
12 -3 20 5 13 -7 20 -29 16 -5 0 -8 3 -8 8 0 5 13 12 30 16 22 5 38 1 60 -15
16 -12 30 -18 30 -13 0 10 20 -19 20 -30 0 -5 -6 -5 -12 -1 -7 4 -9 3 -5 -1
14 -16 36 -14 30 3 -5 11 -3 13 7 7 9 -5 11 -4 6 4 -4 6 -11 9 -16 6 -4 -3
-11 2 -14 10 -3 8 -9 14 -13 13 -4 -1 -18 3 -30 10 -24 13 -21 47 3 38 7 -3
18 2 24 9 7 8 16 13 20 10 5 -3 11 -1 15 5 4 6 11 8 16 5 5 -4 9 -2 9 3 0 4
16 16 35 25 19 9 35 13 35 8 0 -6 9 -13 20 -16 11 -3 20 -11 20 -16 0 -6 -5
-7 -10 -4 -6 3 -13 -1 -16 -9 -3 -9 -10 -13 -15 -10 -5 3 -6 -2 -2 -12 5 -14
8 -13 19 7 7 13 16 23 20 21 5 -2 10 1 12 7 2 6 -3 14 -12 17 -9 3 -13 11 -9
17 3 6 1 7 -5 3 -7 -4 -12 -3 -12 2 0 5 21 20 48 32 77 36 92 44 92 52 0 4 7
4 17 1 12 -5 14 -3 8 8 -4 8 -5 11 0 7 4 -4 14 0 22 10 8 9 12 11 8 5 -4 -9
-1 -11 9 -7 9 3 14 10 11 14 -3 5 0 12 6 16 7 4 9 3 6 -3 -8 -12 20 -26 34
-17 6 3 7 14 4 25 -4 13 -1 21 12 26 10 4 23 13 28 20 6 7 22 14 37 15 15 1
24 6 22 10 -3 4 -12 5 -22 2 -9 -3 -5 3 11 12 15 10 27 22 27 27 0 4 5 5 11 1
8 -4 3 -12 -12 -21 l-24 -14 23 7 c23 6 23 5 7 -19 -11 -17 -23 -24 -33 -20
-15 4 -15 3 -2 -6 12 -9 20 -5 36 14 11 14 24 22 28 18 10 -11 56 -11 49 -1
-2 5 -14 6 -26 2 -19 -6 -20 -5 -8 10 9 10 10 16 2 16 -6 0 -11 -5 -11 -11 0
-5 -5 -7 -11 -3 -8 4 -7 11 3 21 15 15 57 6 57 -12 0 -5 4 -10 11 -12 6 -1 7
0 0 4 -5 2 -7 9 -4 15 3 5 -3 12 -15 15 -12 3 -21 10 -21 16 0 5 -9 2 -20 -8
-11 -10 -20 -14 -20 -9 0 5 9 17 20 27 11 9 20 14 20 10 0 -4 14 9 30 27 25
28 32 31 43 20 10 -10 9 -12 -6 -7 -10 4 -15 3 -12 -2 3 -5 -3 -16 -14 -23
-19 -14 -19 -14 1 -38 19 -24 19 -24 8 -2 -9 18 -8 27 1 38 17 20 42 13 56
-16 7 -14 12 -19 13 -12 0 7 -5 22 -11 33 -8 16 -7 25 7 40 16 18 16 19 1 13
-9 -3 -17 -10 -17 -15 0 -5 -4 -9 -10 -9 -5 0 -10 7 -10 15 0 8 7 15 16 15 9
0 12 5 8 12 -5 7 -2 9 9 5 12 -4 14 -2 10 10 -4 10 -2 14 5 9 6 -3 13 3 17 15
4 11 9 18 12 15 3 -2 18 11 35 30 16 19 34 31 39 28 5 -3 9 1 9 9 0 14 27 32
42 29 4 -1 4 6 1 16 -3 9 -3 14 2 10 4 -4 16 4 27 17 19 25 46 36 32 13 -4 -7
-3 -8 5 -4 9 6 9 11 -1 24 -10 12 -10 14 0 8 6 -4 12 -3 12 2 0 4 23 32 51 62
28 29 62 68 76 87 14 18 32 33 39 33 8 0 13 3 12 8 -5 17 14 52 28 52 8 0 13
4 10 9 -3 5 1 14 9 21 8 7 15 18 15 24 0 6 13 26 29 43 16 18 26 35 22 39 -3
4 3 4 14 0 15 -6 17 -4 8 5 -9 9 -9 15 0 25 28 32 37 44 32 44 -2 0 3 9 12 19
9 11 21 17 27 14 6 -4 5 0 -2 9 -10 12 -10 18 2 27 17 14 31 -2 20 -21 -5 -10
-4 -10 6 -1 11 10 11 15 0 28 -9 11 -10 18 -1 28 6 8 7 18 3 22 -4 5 0 6 8 3
11 -4 16 1 18 15 0 12 6 23 12 25 5 2 10 8 10 13 0 15 107 199 112 193 3 -2 6
7 6 21 0 14 9 34 21 44 11 10 18 20 16 23 -11 10 15 59 27 52 6 -4 8 -3 5 3
-9 14 12 73 25 73 5 0 7 4 4 9 -9 14 5 42 17 34 5 -3 7 -1 4 5 -4 5 3 32 15
59 24 54 22 48 32 85 5 16 13 25 19 21 6 -4 7 -1 3 6 -5 7 0 19 10 27 11 9 13
13 7 9 -8 -4 -13 0 -13 9 0 9 4 16 9 16 5 0 12 14 16 30 4 17 13 44 22 61 8
16 16 37 17 45 1 9 7 19 12 22 5 4 10 20 11 36 1 16 8 33 15 38 7 4 10 8 6 8
-4 0 -2 15 3 33 14 46 18 66 24 122 3 28 8 57 10 65 16 59 26 369 12 388 -5 6
-7 12 -5 12 4 0 0 33 -17 130 -13 73 -56 217 -75 252 -6 10 -10 22 -10 28 0
10 -79 177 -103 215 -29 48 -82 130 -87 135 -3 3 -25 32 -49 65 -117 159 -289
333 -456 462 -46 35 -273 186 -295 196 -8 4 -31 17 -50 29 -143 87 -491 246
-655 300 -121 39 -396 114 -485 133 -8 1 -33 8 -55 14 -22 6 -58 13 -80 17
-22 3 -42 7 -45 9 -10 6 -230 41 -318 50 -74 8 -134 15 -172 20 -90 11 -523
27 -533 19z m2023 -4745 c0 -5 -4 -9 -10 -9 -5 0 -10 7 -10 16 0 8 5 12 10 9
6 -3 10 -10 10 -16z m-3870 -74 c-7 -9 -15 -13 -17 -11 -7 7 7 26 19 26 6 0 6
-6 -2 -15z m230 -139 c0 -3 -4 -8 -10 -11 -5 -3 -10 -1 -10 4 0 6 5 11 10 11
6 0 10 -2 10 -4z m104 -37 c21 3 28 -1 23 -13 -3 -7 0 -19 6 -25 8 -8 8 -11 0
-11 -6 0 -16 6 -23 14 -6 8 -19 12 -28 9 -13 -5 -14 -3 -5 7 6 7 9 20 6 29 -4
12 -3 13 5 3 5 -8 12 -13 16 -13z m60 -30 c-3 -5 0 -9 5 -9 6 0 11 5 11 11 0
8 4 9 13 0 8 -6 17 -9 20 -6 4 3 5 2 2 -2 -8 -11 -48 -11 -68 -1 -21 11 -13
30 8 22 8 -4 12 -10 9 -15z m47 -28 c9 -2 7 -31 -2 -31 -4 0 -13 8 -18 18 -6
9 -11 12 -11 6 0 -12 -50 -14 -50 -3 0 15 33 19 81 10z m69 -47 c0 -16 16 -19
25 -4 12 19 25 -1 14 -21 -8 -16 -13 -18 -24 -9 -8 7 -19 8 -26 4 -7 -4 -10
-2 -7 7 3 8 1 22 -4 31 -6 14 -5 16 7 12 8 -4 15 -12 15 -20z m-25 -4 c3 -5 1
-10 -4 -10 -6 0 -11 5 -11 10 0 6 2 10 4 10 3 0 8 -4 11 -10z m201 -19 c5 1
11 1 14 -1 3 -1 16 -3 29 -6 14 -2 30 -9 38 -15 7 -6 13 -8 13 -4 0 4 6 2 13
-4 8 -6 17 -8 20 -4 4 3 14 0 23 -8 10 -8 19 -13 21 -11 1 1 12 2 24 2 22 0
22 -21 -1 -28 -8 -3 -10 0 -5 8 5 9 4 11 -3 6 -7 -4 -12 -2 -12 5 0 7 -3 9 -6
6 -4 -4 -1 -13 6 -22 10 -12 10 -15 -1 -15 -10 -1 -8 -4 4 -11 9 -5 22 -7 27
-4 6 3 10 2 10 -4 0 -18 -19 -22 -40 -9 -11 7 -18 19 -15 25 2 7 2 20 -2 29
-5 13 -7 13 -14 2 -7 -11 -9 -11 -9 1 0 11 -3 11 -16 0 -25 -21 -52 -21 -64 0
-14 27 -13 36 3 22 8 -6 18 -7 22 -3 5 4 5 -2 1 -12 -5 -16 -4 -17 9 -6 21 18
19 30 -5 25 -11 -2 -18 0 -15 5 4 6 -12 7 -32 1 -2 -1 -5 0 -7 2 -3 1 -16 -9
-29 -22 l-26 -23 -36 28 -37 28 34 17 c21 11 37 14 44 8 7 -5 16 -9 20 -8z
m42 -73 c-3 -22 -34 -55 -43 -46 -5 5 33 68 40 68 4 0 5 -10 3 -22z m237 -9
c-3 -4 -13 -6 -23 -3 -14 5 -14 4 -3 -4 9 -7 23 -7 39 -1 26 10 53 -3 33 -15
-6 -4 -11 -2 -11 5 0 8 -4 8 -12 2 -7 -6 -23 -9 -36 -8 -29 2 -38 -11 -20 -32
12 -15 11 -15 -7 -6 -11 7 -20 20 -20 30 0 12 -6 17 -20 15 -18 -4 -17 -2 4
15 23 19 87 21 76 2z m155 -60 c0 -8 -15 -13 -32 -10 -5 0 -8 -4 -8 -10 0 -6
7 -9 15 -6 8 4 17 2 20 -2 9 -15 -28 -22 -42 -9 -11 11 -10 17 2 35 15 21 45
22 45 2z m283 -16 c-4 -9 0 -11 11 -7 9 3 13 11 10 18 -3 6 1 3 9 -6 8 -10 20
-18 28 -18 11 0 11 2 -1 10 -12 7 -10 9 8 7 26 -2 28 -10 8 -26 -10 -8 -21 -9
-33 -3 -10 5 -31 7 -46 6 -18 -2 -30 3 -34 12 -4 11 -8 12 -13 4 -5 -8 -10 -7
-19 3 -9 12 -4 14 33 13 31 0 42 -4 39 -13z m437 -29 c0 -8 -5 -12 -10 -9 -6
4 -8 11 -5 16 9 14 15 11 15 -7z m60 2 c0 -3 -4 -8 -10 -11 -5 -3 -10 -1 -10
4 0 6 5 11 10 11 6 0 10 -2 10 -4z"/>
<path d="M3150 1900 c0 -5 5 -10 11 -10 5 0 7 5 4 10 -3 6 -8 10 -11 10 -2 0
-4 -4 -4 -10z"/>
<path d="M3468 1784 c-4 -3 -4 -13 0 -22 5 -15 4 -15 -11 -3 -26 21 -26 9 -1
-15 18 -18 24 -19 40 -7 18 13 17 14 -2 33 -11 11 -23 18 -26 14z m26 -35 c-3
-5 -11 -9 -17 -8 -8 0 -8 2 1 6 10 4 10 8 0 21 -12 15 -11 16 4 3 10 -7 15
-17 12 -22z"/>
<path d="M3510 1777 c0 -2 6 -10 14 -16 11 -9 16 -9 22 1 4 7 4 10 -1 6 -4 -4
-14 -3 -22 3 -7 6 -13 9 -13 6z"/>
<path d="M3725 1701 c-3 -5 -2 -12 3 -15 5 -3 9 1 9 9 0 17 -3 19 -12 6z"/>
<path d="M8039 3713 c-13 -16 -12 -17 4 -4 16 13 21 21 13 21 -2 0 -10 -8 -17
-17z"/>
<path d="M8075 3691 c-3 -5 -2 -12 3 -15 5 -3 9 1 9 9 0 17 -3 19 -12 6z"/>
<path d="M7910 3559 c0 -5 5 -7 10 -4 6 3 10 8 10 11 0 2 -4 4 -10 4 -5 0 -10
-5 -10 -11z"/>
<path d="M7853 3509 c-2 -23 3 -25 10 -4 4 8 3 16 -1 19 -4 3 -9 -4 -9 -15z"/>
<path d="M7850 3465 c0 -5 5 -17 10 -25 5 -8 10 -10 10 -5 0 6 -5 17 -10 25
-5 8 -10 11 -10 5z"/>
<path d="M7785 3440 c-3 -6 1 -7 9 -4 18 7 21 14 7 14 -6 0 -13 -4 -16 -10z"/>
<path d="M7860 3400 c-8 -5 -10 -10 -5 -10 6 0 17 5 25 10 8 5 11 10 5 10 -5
0 -17 -5 -25 -10z"/>
<path d="M7810 3380 c0 -5 5 -10 11 -10 5 0 7 5 4 10 -3 6 -8 10 -11 10 -2 0
-4 -4 -4 -10z"/>
<path d="M7736 3327 c3 -10 9 -15 12 -12 3 3 0 11 -7 18 -10 9 -11 8 -5 -6z"/>
<path d="M7814 3302 c4 -3 14 -7 22 -8 9 -1 13 0 10 4 -4 3 -14 7 -22 8 -9 1
-13 0 -10 -4z"/>
<path d="M7706 3278 c3 -5 10 -6 15 -3 13 9 11 12 -6 12 -8 0 -12 -4 -9 -9z"/>
<path d="M7755 3179 c-3 -4 2 -6 10 -5 21 3 28 13 10 13 -9 0 -18 -4 -20 -8z"/>
<path d="M7696 3167 c3 -10 9 -15 12 -12 3 3 0 11 -7 18 -10 9 -11 8 -5 -6z"/>
<path d="M7730 3139 c0 -5 5 -7 10 -4 6 3 10 8 10 11 0 2 -4 4 -10 4 -5 0 -10
-5 -10 -11z"/>
<path d="M7730 3100 c0 -5 5 -10 11 -10 5 0 7 5 4 10 -3 6 -8 10 -11 10 -2 0
-4 -4 -4 -10z"/>
<path d="M7620 3080 c-9 -6 -10 -10 -3 -10 6 0 15 5 18 10 8 12 4 12 -15 0z"/>
<path d="M7565 3059 c-4 -6 -5 -12 -2 -15 2 -3 7 2 10 11 7 17 1 20 -8 4z"/>
<path d="M7579 3033 c-13 -17 -13 -17 6 -3 11 8 22 16 24 17 2 2 0 3 -6 3 -6
0 -17 -8 -24 -17z"/>
<path d="M7786 3042 c-3 -5 1 -9 9 -9 8 0 12 4 9 9 -3 4 -7 8 -9 8 -2 0 -6 -4
-9 -8z"/>
<path d="M7573 2995 c0 -8 4 -12 9 -9 5 3 6 10 3 15 -9 13 -12 11 -12 -6z"/>
<path d="M7606 2998 c3 -5 10 -6 15 -3 13 9 11 12 -6 12 -8 0 -12 -4 -9 -9z"/>
<path d="M7730 3000 c0 -5 5 -10 10 -10 6 0 10 5 10 10 0 6 -4 10 -10 10 -5 0
-10 -4 -10 -10z"/>
<path d="M7790 3000 c0 -5 5 -10 11 -10 5 0 7 5 4 10 -3 6 -8 10 -11 10 -2 0
-4 -4 -4 -10z"/>
<path d="M7510 2946 c0 -2 7 -7 16 -10 8 -3 12 -2 9 4 -6 10 -25 14 -25 6z"/>
<path d="M7493 2913 c0 -9 4 -10 14 -2 7 6 13 12 13 14 0 1 -6 2 -13 2 -8 0
-14 -6 -14 -14z"/>
<path d="M7570 2900 c0 -5 5 -10 11 -10 5 0 7 5 4 10 -3 6 -8 10 -11 10 -2 0
-4 -4 -4 -10z"/>
<path d="M7634 2902 c4 -3 14 -7 22 -8 9 -1 13 0 10 4 -4 3 -14 7 -22 8 -9 1
-13 0 -10 -4z"/>
<path d="M7456 2873 c-6 -14 -5 -15 5 -6 7 7 10 15 7 18 -3 3 -9 -2 -12 -12z"/>
<path d="M7575 2860 c3 -5 8 -10 11 -10 2 0 4 5 4 10 0 6 -5 10 -11 10 -5 0
-7 -4 -4 -10z"/>
<path d="M7616 2861 c-3 -5 2 -15 12 -22 15 -12 16 -12 5 2 -7 9 -10 19 -6 22
3 4 4 7 0 7 -3 0 -8 -4 -11 -9z"/>
<path d="M7473 2834 c0 -9 4 -11 12 -4 7 5 14 9 16 7 2 -1 3 0 1 2 -7 11 -29
7 -29 -5z"/>
<path d="M7430 2816 c7 -7 13 -7 20 0 6 6 3 10 -10 10 -13 0 -16 -4 -10 -10z"/>
<path d="M7575 2820 c-3 -5 -1 -10 4 -10 6 0 11 5 11 10 0 6 -2 10 -4 10 -3 0
-8 -4 -11 -10z"/>
<path d="M7375 2811 c-3 -5 -2 -12 3 -15 5 -3 9 1 9 9 0 17 -3 19 -12 6z"/>
<path d="M7475 2799 c-3 -4 2 -6 10 -5 21 3 28 13 10 13 -9 0 -18 -4 -20 -8z"/>
<path d="M7357 2783 c-10 -9 -9 -23 1 -23 5 0 9 7 9 15 0 17 -1 18 -10 8z"/>
<path d="M7380 2771 c0 -6 4 -13 10 -16 6 -3 7 1 4 9 -7 18 -14 21 -14 7z"/>
<path d="M7416 2767 c3 -10 9 -15 12 -12 3 3 0 11 -7 18 -10 9 -11 8 -5 -6z"/>
<path d="M7475 2771 c-3 -5 -2 -12 3 -15 5 -3 9 1 9 9 0 17 -3 19 -12 6z"/>
<path d="M7545 2759 c-3 -4 2 -6 10 -5 21 3 28 13 10 13 -9 0 -18 -4 -20 -8z"/>
<path d="M7347 2719 c7 -7 15 -10 18 -7 3 3 -2 9 -12 12 -14 6 -15 5 -6 -5z"/>
<path d="M7475 2720 c3 -5 8 -10 11 -10 2 0 4 5 4 10 0 6 -5 10 -11 10 -5 0
-7 -4 -4 -10z"/>
<path d="M7310 2711 c0 -5 7 -12 16 -15 14 -5 15 -4 4 9 -14 17 -20 19 -20 6z"/>
<path d="M7514 2702 c4 -3 14 -7 22 -8 9 -1 13 0 10 4 -4 3 -14 7 -22 8 -9 1
-13 0 -10 -4z"/>
<path d="M7270 2681 c0 -6 4 -12 8 -15 5 -3 9 1 9 9 0 8 -4 15 -9 15 -4 0 -8
-4 -8 -9z"/>
<path d="M7253 2649 c-2 -23 3 -25 10 -4 4 8 3 16 -1 19 -4 3 -9 -4 -9 -15z"/>
<path d="M7300 2665 c0 -2 6 -8 13 -14 10 -8 14 -7 14 2 0 8 -6 14 -14 14 -7
0 -13 -1 -13 -2z"/>
<path d="M7455 2659 c-3 -4 2 -6 10 -5 21 3 28 13 10 13 -9 0 -18 -4 -20 -8z"/>
<path d="M7566 2642 c-3 -5 1 -9 9 -9 8 0 12 4 9 9 -3 4 -7 8 -9 8 -2 0 -6 -4
-9 -8z"/>
<path d="M7250 2606 c0 -8 4 -17 9 -20 5 -4 7 3 4 14 -6 23 -13 26 -13 6z"/>
<path d="M7396 2602 c-3 -5 1 -9 9 -9 8 0 12 4 9 9 -3 4 -7 8 -9 8 -2 0 -6 -4
-9 -8z"/>
<path d="M7314 2576 c1 -8 5 -18 8 -22 4 -3 5 1 4 10 -1 8 -5 18 -8 22 -4 3
-5 -1 -4 -10z"/>
<path d="M7446 2578 c3 -5 10 -6 15 -3 13 9 11 12 -6 12 -8 0 -12 -4 -9 -9z"/>
<path d="M7195 2570 c-4 -6 -11 -8 -16 -5 -5 4 -9 2 -9 -4 0 -5 9 -9 19 -8 11
0 18 4 15 8 -2 4 2 10 8 12 9 4 10 6 1 6 -6 1 -15 -4 -18 -9z"/>
<path d="M7347 2559 c7 -7 15 -10 18 -7 3 3 -2 9 -12 12 -14 6 -15 5 -6 -5z"/>
<path d="M7530 2566 c0 -2 7 -7 16 -10 8 -3 12 -2 9 4 -6 10 -25 14 -25 6z"/>
<path d="M7125 2540 c-3 -6 1 -7 9 -4 18 7 21 14 7 14 -6 0 -13 -4 -16 -10z"/>
<path d="M7144 2525 c-10 -8 -14 -15 -8 -15 6 0 17 7 24 15 16 19 9 19 -16 0z"/>
<path d="M7204 2518 l-19 -23 23 19 c12 11 22 21 22 23 0 8 -8 2 -26 -19z"/>
<path d="M7075 2498 l-20 -21 23 12 c12 6 22 16 22 21 0 13 -2 12 -25 -12z"/>
<path d="M7115 2500 c3 -6 1 -10 -6 -10 -7 0 -10 -3 -6 -6 3 -3 13 -2 22 4 16
8 16 9 1 15 -10 4 -15 3 -11 -3z"/>
<path d="M7160 2500 c-9 -6 -10 -10 -3 -10 6 0 15 5 18 10 8 12 4 12 -15 0z"/>
<path d="M7190 2486 c0 -2 7 -7 16 -10 8 -3 12 -2 9 4 -6 10 -25 14 -25 6z"/>
<path d="M7333 2471 c0 -11 5 -18 9 -15 4 3 5 11 1 19 -7 21 -12 19 -10 -4z"/>
<path d="M7046 2454 c-3 -8 -10 -12 -16 -9 -5 3 -10 2 -10 -3 0 -11 30 -25 38
-17 3 3 -1 5 -8 5 -9 0 -8 6 5 20 10 11 13 20 8 20 -6 0 -14 -7 -17 -16z"/>
<path d="M7070 2438 c0 -11 12 -10 30 2 12 7 10 9 -8 7 -12 0 -22 -5 -22 -9z"/>
<path d="M7153 2435 c0 -8 4 -12 9 -9 5 3 6 10 3 15 -9 13 -12 11 -12 -6z"/>
<path d="M7180 2446 c0 -2 8 -10 18 -17 15 -13 16 -12 3 4 -13 16 -21 21 -21
13z"/>
<path d="M7556 2433 c-6 -14 -5 -15 5 -6 7 7 10 15 7 18 -3 3 -9 -2 -12 -12z"/>
<path d="M7104 2422 c4 -3 14 -7 22 -8 9 -1 13 0 10 4 -4 3 -14 7 -22 8 -9 1
-13 0 -10 -4z"/>
<path d="M7010 2409 c0 -5 5 -7 10 -4 6 3 10 8 10 11 0 2 -4 4 -10 4 -5 0 -10
-5 -10 -11z"/>
<path d="M7055 2400 c3 -5 8 -10 11 -10 2 0 4 5 4 10 0 6 -5 10 -11 10 -5 0
-7 -4 -4 -10z"/>
<path d="M7326 2398 c3 -5 10 -6 15 -3 13 9 11 12 -6 12 -8 0 -12 -4 -9 -9z"/>
<path d="M7386 2402 c-3 -5 1 -9 9 -9 8 0 12 4 9 9 -3 4 -7 8 -9 8 -2 0 -6 -4
-9 -8z"/>
<path d="M7030 2389 c0 -5 -5 -7 -12 -3 -7 4 -8 3 -4 -4 4 -6 13 -9 21 -6 8 4
12 10 9 15 -7 12 -14 11 -14 -2z"/>
<path d="M7216 2378 c3 -4 11 -5 19 -1 21 7 19 12 -4 10 -11 0 -18 -5 -15 -9z"/>
<path d="M7041 2360 c-13 -11 -18 -20 -13 -20 6 0 14 5 17 10 4 6 10 8 14 6 4
-3 8 1 8 9 0 8 -1 15 -1 15 -1 -1 -12 -10 -25 -20z"/>
<path d="M6990 2360 c0 -5 5 -10 10 -10 6 0 10 5 10 10 0 6 -4 10 -10 10 -5 0
-10 -4 -10 -10z"/>
<path d="M7136 2358 c3 -5 10 -6 15 -3 13 9 11 12 -6 12 -8 0 -12 -4 -9 -9z"/>
<path d="M2395 2341 c-3 -5 -2 -12 3 -15 5 -3 9 1 9 9 0 17 -3 19 -12 6z"/>
<path d="M7230 2341 c0 -6 4 -13 10 -16 6 -3 7 1 4 9 -7 18 -14 21 -14 7z"/>
<path d="M7055 2331 c-3 -6 -14 -8 -24 -6 -10 2 -18 -3 -18 -11 0 -9 4 -11 12
-4 7 5 14 8 17 5 3 -3 11 1 18 10 7 8 10 15 7 15 -3 0 -8 -4 -12 -9z"/>
<path d="M2356 2313 c-6 -14 -5 -15 5 -6 7 7 10 15 7 18 -3 3 -9 -2 -12 -12z"/>
<path d="M2446 2322 c-3 -5 1 -9 9 -9 8 0 12 4 9 9 -3 4 -7 8 -9 8 -2 0 -6 -4
-9 -8z"/>
<path d="M6930 2316 c0 -23 16 -27 31 -8 13 16 13 16 -5 2 -18 -14 -19 -13
-13 3 3 9 2 17 -3 17 -6 0 -10 -6 -10 -14z"/>
<path d="M6959 2288 c-5 -18 -6 -38 -1 -34 7 8 12 36 6 36 -2 0 -4 -1 -5 -2z"/>
<path d="M7105 2280 c-3 -6 1 -7 9 -4 18 7 21 14 7 14 -6 0 -13 -4 -16 -10z"/>
<path d="M7679 2273 c-13 -16 -12 -17 4 -4 16 13 21 21 13 21 -2 0 -10 -8 -17
-17z"/>
<path d="M2509 2263 c-13 -17 -13 -17 6 -3 11 8 22 16 24 17 2 2 0 3 -6 3 -6
0 -17 -8 -24 -17z"/>
<path d="M2531 2247 c-8 -10 -7 -14 2 -14 8 0 14 6 14 14 0 7 -1 13 -2 13 -2
0 -8 -6 -14 -13z"/>
<path d="M6910 2236 c0 -2 8 -10 18 -17 15 -13 16 -12 3 4 -13 16 -21 21 -21
13z"/>
<path d="M2495 2220 c-3 -5 -1 -10 4 -10 6 0 11 5 11 10 0 6 -2 10 -4 10 -3 0
-8 -4 -11 -10z"/>
<path d="M6832 2225 c4 -4 0 -14 -10 -21 -9 -7 -12 -14 -6 -14 6 0 17 6 23 14
9 11 9 16 -1 22 -7 4 -10 4 -6 -1z"/>
<path d="M7015 2220 c-3 -5 -1 -10 4 -10 6 0 11 5 11 10 0 6 -2 10 -4 10 -3 0
-8 -4 -11 -10z"/>
<path d="M2535 2211 c-3 -5 -2 -12 3 -15 5 -3 9 1 9 9 0 17 -3 19 -12 6z"/>
<path d="M2573 2206 c0 -7 6 -13 14 -13 7 0 13 4 13 8 0 4 -6 9 -13 12 -8 3
-14 0 -14 -7z"/>
<path d="M6742 2213 c0 -5 -2 -16 -7 -26 -5 -13 -10 -15 -15 -7 -4 7 -7 1 -7
-14 l0 -26 23 31 c13 18 21 36 18 40 -6 11 -15 12 -12 2z"/>
<path d="M6870 2209 c0 -5 5 -7 10 -4 6 3 10 8 10 11 0 2 -4 4 -10 4 -5 0 -10
-5 -10 -11z"/>
<path d="M6759 2171 c-7 -16 -17 -27 -23 -24 -5 3 -6 1 -2 -5 4 -7 9 -12 11
-12 6 0 35 63 31 67 -2 2 -10 -9 -17 -26z"/>
<path d="M6794 2182 c3 -5 0 -13 -6 -15 -9 -4 -10 -6 -1 -6 17 -1 25 16 12 25
-7 4 -9 3 -5 -4z"/>
<path d="M6835 2180 c-16 -7 -17 -9 -3 -9 9 -1 20 4 23 9 7 11 7 11 -20 0z"/>
<path d="M2638 2163 c7 -3 16 -2 19 1 4 3 -2 6 -13 5 -11 0 -14 -3 -6 -6z"/>
<path d="M7150 2166 c0 -2 7 -7 16 -10 8 -3 12 -2 9 4 -6 10 -25 14 -25 6z"/>
<path d="M2575 2140 c3 -5 8 -10 11 -10 2 0 4 5 4 10 0 6 -5 10 -11 10 -5 0
-7 -4 -4 -10z"/>
<path d="M6820 2146 c0 -2 8 -10 18 -17 15 -13 16 -12 3 4 -13 16 -21 21 -21
13z"/>
<path d="M2699 2121 c8 -5 21 -7 29 -3 9 3 13 1 9 -5 -4 -6 6 -19 21 -28 15
-10 24 -14 20 -10 -4 5 -3 14 3 21 6 8 6 14 0 18 -5 4 -12 2 -16 -4 -9 -14
-26 -13 -22 2 1 6 -11 13 -28 14 -20 2 -25 0 -16 -5z"/>
<path d="M6650 2126 c0 -2 7 -7 16 -10 8 -3 12 -2 9 4 -6 10 -25 14 -25 6z"/>
<path d="M6690 2120 c0 -5 5 -10 10 -10 6 0 10 5 10 10 0 6 -4 10 -10 10 -5 0
-10 -4 -10 -10z"/>
<path d="M6754 2119 c-2 -4 4 -6 13 -4 10 1 23 -1 29 -6 6 -5 11 -4 11 4 0 14
-45 18 -53 6z"/>
<path d="M6927 2119 c7 -7 15 -10 18 -7 3 3 -2 9 -12 12 -14 6 -15 5 -6 -5z"/>
<path d="M6610 2104 c-18 -10 -20 -13 -8 -14 9 0 19 4 23 10 3 5 12 7 20 4 8
-4 13 -9 11 -13 -3 -4 -1 -13 4 -21 7 -11 9 -9 7 8 -2 32 -27 43 -57 26z"/>
<path d="M2673 2093 c0 -9 4 -10 14 -2 7 6 13 12 13 14 0 1 -6 2 -13 2 -8 0
-14 -6 -14 -14z"/>
<path d="M6719 2108 c-5 -18 -6 -39 -2 -34 4 3 11 1 18 -4 8 -7 12 -5 12 5 0
7 -3 14 -6 13 -19 -2 -24 4 -11 12 10 6 11 10 3 10 -7 0 -13 -1 -14 -2z"/>
<path d="M6570 2092 c0 -7 7 -15 15 -18 8 -4 12 -10 9 -15 -3 -5 2 -6 10 -3
11 4 14 0 11 -15 -3 -15 0 -18 12 -14 10 4 14 2 10 -4 -3 -5 1 -10 10 -10 13
0 12 4 -5 17 -12 10 -19 20 -16 23 3 3 -5 11 -18 18 -12 6 -26 17 -30 23 -5 8
-8 7 -8 -2z"/>
<path d="M6680 2095 c0 -5 5 -17 10 -25 5 -8 10 -10 10 -5 0 6 -5 17 -10 25
-5 8 -10 11 -10 5z"/>
<path d="M6774 2080 c0 -13 4 -16 10 -10 7 7 7 13 0 20 -6 6 -10 3 -10 -10z"/>
<path d="M6543 2074 c-19 -19 -16 -29 4 -13 15 12 16 12 10 -3 -3 -10 -2 -20
4 -24 18 -11 21 3 7 29 -11 21 -15 23 -25 11z"/>
<path d="M6630 2085 c0 -5 5 -17 10 -25 5 -8 10 -10 10 -5 0 6 -5 17 -10 25
-5 8 -10 11 -10 5z"/>
<path d="M7310 2079 c0 -5 5 -7 10 -4 6 3 10 8 10 11 0 2 -4 4 -10 4 -5 0 -10
-5 -10 -11z"/>
<path d="M2744 2050 c0 -13 4 -16 10 -10 7 7 7 13 0 20 -6 6 -10 3 -10 -10z"/>
<path d="M6835 2060 c3 -5 8 -10 11 -10 2 0 4 5 4 10 0 6 -5 10 -11 10 -5 0
-7 -4 -4 -10z"/>
<path d="M2859 2057 c-8 -22 -4 -39 12 -47 13 -7 19 -7 19 0 0 5 -7 10 -16 10
-8 0 -12 5 -9 10 4 6 11 8 16 5 5 -4 9 -2 9 3 0 8 -28 26 -31 19z"/>
<path d="M6493 2040 c-3 -11 -9 -17 -14 -14 -5 3 -6 10 -3 16 4 7 2 8 -4 4
-13 -8 -5 -36 10 -36 5 0 12 9 15 20 3 11 10 17 16 13 6 -3 7 -1 3 5 -10 17
-17 15 -23 -8z"/>
<path d="M2820 2040 c0 -5 5 -10 10 -10 6 0 10 5 10 10 0 6 -4 10 -10 10 -5 0
-10 -4 -10 -10z"/>
<path d="M2793 2025 c0 -8 4 -15 9 -15 4 0 8 4 8 9 0 6 -4 12 -8 15 -5 3 -9
-1 -9 -9z"/>
<path d="M6535 2030 c6 -10 4 -12 -9 -7 -9 4 -15 3 -11 -2 3 -5 -1 -12 -7 -14
-7 -3 -8 -6 -2 -6 5 -1 18 5 29 12 14 11 15 16 5 22 -9 6 -11 4 -5 -5z"/>
<path d="M6775 2020 c3 -5 8 -10 11 -10 2 0 4 5 4 10 0 6 -5 10 -11 10 -5 0
-7 -4 -4 -10z"/>
<path d="M2941 1998 c7 -16 15 -28 19 -28 4 0 10 -10 13 -22 4 -12 9 -19 13
-15 4 3 -1 18 -10 32 -9 14 -12 25 -7 25 5 0 13 -4 16 -10 3 -5 11 -10 18 -10
6 0 1 7 -11 16 -13 9 -26 13 -29 10 -3 -3 -12 2 -20 12 -11 15 -12 13 -2 -10z"/>
<path d="M2847 1999 c7 -7 15 -10 18 -7 3 3 -2 9 -12 12 -14 6 -15 5 -6 -5z"/>
<path d="M6398 2003 c6 -2 10 -9 7 -14 -4 -5 1 -6 10 -2 13 5 14 7 3 14 -7 5
-17 8 -23 8 -5 0 -4 -3 3 -6z"/>
<path d="M6540 2000 c-12 -7 -10 -9 7 -7 12 0 19 5 17 9 -6 10 -6 10 -24 -2z"/>
<path d="M6593 2003 c4 -3 2 -11 -3 -18 -7 -8 -6 -12 3 -12 7 0 14 9 14 19 1
10 -3 18 -9 18 -6 0 -8 -3 -5 -7z"/>
<path d="M6363 1981 c-8 -12 -21 -17 -38 -15 -15 1 -24 0 -21 -3 2 -3 -1 -11
-7 -18 -8 -9 -16 -10 -24 -3 -9 7 -13 7 -13 0 0 -18 24 -20 44 -3 18 15 18 15
12 -9 -6 -19 -5 -21 3 -10 9 13 11 12 12 -5 0 -11 3 -15 5 -8 3 7 0 22 -7 34
-10 19 -9 21 5 16 17 -7 62 28 48 37 -5 3 -13 -3 -19 -13z"/>
<path d="M2885 1979 c-6 -8 -4 -10 5 -4 10 6 11 1 7 -21 -6 -27 -6 -27 5 -6
13 26 -3 55 -17 31z"/>
<path d="M6496 1981 c-3 -5 0 -14 8 -20 10 -9 15 -8 19 3 4 11 1 13 -10 9 -11
-4 -14 -2 -9 5 4 7 5 12 2 12 -3 0 -7 -4 -10 -9z"/>
<path d="M6735 1980 c3 -5 8 -10 11 -10 2 0 4 5 4 10 0 6 -5 10 -11 10 -5 0
-7 -4 -4 -10z"/>
<path d="M6375 1960 c-3 -5 -3 -10 2 -11 4 0 -1 -4 -12 -9 -16 -6 -14 -8 13
-7 17 0 32 4 32 9 0 4 -3 7 -7 7 -20 -3 -26 2 -13 11 9 6 10 10 3 10 -6 0 -15
-4 -18 -10z"/>
<path d="M6800 1960 c-9 -6 -10 -10 -3 -10 6 0 15 5 18 10 8 12 4 12 -15 0z"/>
<path d="M2937 1933 c6 -15 4 -16 -8 -6 -13 10 -16 10 -16 -2 0 -8 3 -13 5
-10 3 3 10 1 16 -5 8 -6 12 -3 13 10 1 11 -2 22 -8 25 -5 4 -6 -2 -2 -12z"/>
<path d="M6675 1939 c-3 -4 2 -6 10 -5 21 3 28 13 10 13 -9 0 -18 -4 -20 -8z"/>
<path d="M2835 1929 c-4 -6 -5 -12 -2 -15 2 -3 7 2 10 11 7 17 1 20 -8 4z"/>
<path d="M2966 1917 c3 -10 9 -15 12 -12 3 3 0 11 -7 18 -10 9 -11 8 -5 -6z"/>
<path d="M6415 1921 c-3 -5 -2 -12 3 -15 5 -3 9 1 9 9 0 17 -3 19 -12 6z"/>
<path d="M7106 1918 c3 -4 9 -8 15 -8 5 0 9 4 9 8 0 5 -7 9 -15 9 -8 0 -12 -4
-9 -9z"/>
<path d="M6223 1904 c10 -11 24 -28 32 -39 14 -19 15 -19 8 -1 -5 14 -3 17 7
11 9 -5 11 -4 6 4 -4 6 -12 9 -17 6 -5 -4 -9 -2 -9 4 0 6 -10 16 -22 22 -22
11 -22 11 -5 -7z"/>
<path d="M6350 1900 c0 -5 7 -7 15 -4 8 4 15 8 15 10 0 2 -7 4 -15 4 -8 0 -15
-4 -15 -10z"/>
<path d="M6570 1899 c0 -5 5 -7 10 -4 6 3 10 8 10 11 0 2 -4 4 -10 4 -5 0 -10
-5 -10 -11z"/>
<path d="M2839 1873 c-13 -16 -12 -17 4 -4 16 13 21 21 13 21 -2 0 -10 -8 -17
-17z"/>
<path d="M2993 1875 c0 -8 4 -12 9 -9 5 3 6 10 3 15 -9 13 -12 11 -12 -6z"/>
<path d="M3025 1879 c-4 -6 -5 -12 -2 -15 2 -3 7 2 10 11 7 17 1 20 -8 4z"/>
<path d="M6650 1882 c0 -5 7 -9 15 -9 8 0 12 4 9 9 -3 4 -9 8 -15 8 -5 0 -9
-4 -9 -8z"/>
<path d="M6126 1863 c-6 -14 -5 -15 5 -6 7 7 10 15 7 18 -3 3 -9 -2 -12 -12z"/>
<path d="M2936 1858 c3 -5 10 -6 15 -3 13 9 11 12 -6 12 -8 0 -12 -4 -9 -9z"/>
<path d="M6354 1840 c0 -16 2 -28 4 -25 9 8 11 55 3 55 -4 0 -7 -13 -7 -30z"/>
<path d="M6390 1856 c7 -7 13 -7 20 0 6 6 3 10 -10 10 -13 0 -16 -4 -10 -10z"/>
<path d="M6539 1868 c-5 -18 -6 -38 -1 -34 7 8 12 36 6 36 -2 0 -4 -1 -5 -2z"/>
<path d="M3070 1856 c0 -2 8 -10 18 -17 15 -13 16 -12 3 4 -13 16 -21 21 -21
13z"/>
<path d="M3136 1845 c-3 -8 -1 -15 4 -15 6 0 10 7 10 15 0 8 -2 15 -4 15 -2 0
-6 -7 -10 -15z"/>
<path d="M6103 1838 c16 -25 44 -31 39 -9 -2 8 3 11 11 8 8 -3 20 -1 28 4 9 5
4 7 -16 5 -17 -1 -29 -8 -27 -14 4 -21 -20 -13 -25 8 -3 11 -10 20 -15 20 -6
0 -4 -10 5 -22z"/>
<path d="M3026 1838 c3 -4 9 -8 15 -8 5 0 9 4 9 8 0 5 -7 9 -15 9 -8 0 -12 -4
-9 -9z"/>
<path d="M6242 1836 c7 -8 15 -12 17 -11 5 6 -10 25 -20 25 -5 0 -4 -6 3 -14z"/>
<path d="M6276 1842 c-3 -5 1 -9 9 -9 8 0 12 4 9 9 -3 4 -7 8 -9 8 -2 0 -6 -4
-9 -8z"/>
<path d="M6446 1838 c3 -5 10 -6 15 -3 13 9 11 12 -6 12 -8 0 -12 -4 -9 -9z"/>
<path d="M6191 1831 c-8 -5 -16 -17 -17 -25 -1 -9 2 -13 9 -9 7 4 8 0 3 -13
-6 -15 -5 -16 5 -7 10 10 9 16 -2 29 -12 16 -12 17 4 11 12 -5 16 -3 11 5 -5
8 -2 9 10 5 10 -4 15 -3 11 3 -8 12 -16 12 -34 1z"/>
<path d="M3070 1820 c0 -5 5 -10 11 -10 5 0 7 5 4 10 -3 6 -8 10 -11 10 -2 0
-4 -4 -4 -10z"/>
<path d="M6010 1821 c0 -5 7 -11 15 -15 18 -6 20 -27 3 -23 -7 1 -14 -9 -15
-23 -2 -24 -2 -24 5 -2 4 13 12 23 17 22 19 -2 15 25 -5 38 -11 7 -20 8 -20 3z"/>
<path d="M5953 1799 c-2 -23 3 -25 10 -4 4 8 3 16 -1 19 -4 3 -9 -4 -9 -15z"/>
<path d="M3035 1800 c3 -5 8 -10 11 -10 2 0 4 5 4 10 0 6 -5 10 -11 10 -5 0
-7 -4 -4 -10z"/>
<path d="M3194 1802 c3 -5 0 -13 -6 -15 -8 -3 -6 -6 5 -6 19 -1 23 14 5 25 -6
4 -8 3 -4 -4z"/>
<path d="M3231 1794 c0 -11 3 -14 6 -6 3 7 2 16 -1 19 -3 4 -6 -2 -5 -13z"/>
<path d="M5985 1800 c3 -5 1 -10 -4 -10 -6 0 -11 -5 -11 -10 0 -6 8 -5 19 2
19 12 19 28 0 28 -6 0 -7 -4 -4 -10z"/>
<path d="M6106 1795 c10 -8 23 -15 28 -15 6 0 1 7 -10 15 -10 8 -23 15 -28 15
-6 0 -1 -7 10 -15z"/>
<path d="M6230 1806 c0 -2 7 -7 16 -10 8 -3 12 -2 9 4 -6 10 -25 14 -25 6z"/>
<path d="M6410 1800 c0 -5 5 -10 11 -10 5 0 7 5 4 10 -3 6 -8 10 -11 10 -2 0
-4 -4 -4 -10z"/>
<path d="M5913 1782 c15 -10 24 -22 20 -25 -3 -4 -1 -7 5 -7 7 0 12 4 12 9 0
9 -44 41 -57 41 -4 0 4 -8 20 -18z"/>
<path d="M6070 1790 c0 -5 7 -10 16 -10 9 0 12 -5 8 -12 -4 -7 -3 -8 4 -4 16
10 15 14 -8 26 -14 7 -20 7 -20 0z"/>
<path d="M2996 1773 c-6 -14 -5 -15 5 -6 7 7 10 15 7 18 -3 3 -9 -2 -12 -12z"/>
<path d="M5885 1764 c7 -14 17 -26 21 -26 5 -1 15 -8 22 -17 11 -14 11 -13 2
7 -6 13 -16 20 -22 16 -7 -5 -9 -2 -6 8 4 8 -2 19 -12 26 -17 10 -17 9 -5 -14z"/>
<path d="M6326 1782 c-3 -5 1 -9 9 -9 8 0 12 4 9 9 -3 4 -7 8 -9 8 -2 0 -6 -4
-9 -8z"/>
<path d="M6375 1780 c-3 -5 -1 -10 4 -10 6 0 11 5 11 10 0 6 -2 10 -4 10 -3 0
-8 -4 -11 -10z"/>
<path d="M3135 1771 c-3 -5 -2 -12 3 -15 5 -3 9 1 9 9 0 17 -3 19 -12 6z"/>
<path d="M3173 1753 c0 -8 5 -9 11 -4 6 5 19 7 29 6 9 -2 17 0 17 5 0 4 -13 7
-28 7 -16 -1 -29 -7 -29 -14z"/>
<path d="M3265 1759 c-4 -6 -4 -13 -1 -16 3 -4 6 -1 6 6 0 7 5 9 10 6 6 -3 10
-1 10 4 0 14 -17 14 -25 0z"/>
<path d="M6040 1755 c-19 -22 -8 -25 13 -3 9 10 13 18 8 18 -5 0 -14 -7 -21
-15z"/>
<path d="M6120 1760 c-8 -5 -10 -10 -5 -10 6 0 17 5 25 10 8 5 11 10 5 10 -5
0 -17 -5 -25 -10z"/>
<path d="M6193 1756 c-3 -6 -3 -8 2 -4 4 4 13 3 20 -2 8 -7 12 -5 12 3 0 16
-25 18 -34 3z"/>
<path d="M3235 1741 c-3 -5 -2 -12 3 -15 5 -3 9 1 9 9 0 17 -3 19 -12 6z"/>
<path d="M3299 1748 c-6 -22 -5 -39 3 -45 7 -3 8 -1 4 5 -9 15 -1 15 27 1 21
-10 21 -10 3 5 -11 9 -24 16 -29 16 -4 0 -5 5 -2 10 3 6 4 10 1 10 -3 0 -6 -1
-7 -2z"/>
<path d="M5775 1740 c3 -5 8 -10 11 -10 2 0 4 5 4 10 0 6 -5 10 -11 10 -5 0
-7 -4 -4 -10z"/>
<path d="M5865 1739 c-4 -6 -5 -12 -2 -15 2 -3 7 2 10 11 7 17 1 20 -8 4z"/>
<path d="M6314 1742 c4 -3 14 -7 22 -8 9 -1 13 0 10 4 -4 3 -14 7 -22 8 -9 1
-13 0 -10 -4z"/>
<path d="M5796 1725 c-3 -8 -1 -15 4 -15 6 0 10 7 10 15 0 8 -2 15 -4 15 -2 0
-6 -7 -10 -15z"/>
<path d="M6173 1727 c0 -8 6 -14 14 -14 9 0 10 4 2 14 -6 7 -12 13 -14 13 -1
0 -2 -6 -2 -13z"/>
<path d="M3360 1719 c0 -5 5 -7 10 -4 6 3 10 8 10 11 0 2 -4 4 -10 4 -5 0 -10
-5 -10 -11z"/>
<path d="M5694 1711 c1 -18 43 -22 43 -5 0 9 -5 10 -18 3 -12 -6 -19 -5 -22 4
-2 7 -4 7 -3 -2z"/>
<path d="M5880 1720 c0 -5 5 -10 11 -10 5 0 7 -5 3 -12 -4 -7 -3 -8 5 -4 9 6
9 11 0 22 -14 17 -19 18 -19 4z"/>
<path d="M5993 1717 c0 -7 8 -13 18 -13 13 0 15 3 7 13 -6 7 -14 13 -18 13 -3
0 -7 -6 -7 -13z"/>
<path d="M6053 1714 c0 -9 4 -11 12 -4 7 5 14 9 16 7 2 -1 3 0 1 2 -7 11 -29
7 -29 -5z"/>
<path d="M6816 1713 c-6 -14 -5 -15 5 -6 7 7 10 15 7 18 -3 3 -9 -2 -12 -12z"/>
<path d="M3400 1711 c0 -7 -5 -9 -10 -6 -6 3 -13 -1 -16 -9 -3 -9 -10 -14 -14
-11 -5 3 -7 -3 -5 -12 1 -10 -3 -25 -9 -33 -9 -13 -9 -13 6 -2 10 8 17 17 16
20 -3 14 14 42 22 37 10 -6 24 14 16 22 -3 4 -6 1 -6 -6z"/>
<path d="M5841 1713 c-1 -7 -6 -12 -12 -10 -6 1 -14 -5 -16 -13 -3 -10 -2 -11
4 -4 4 6 16 10 25 8 10 -1 21 3 25 8 3 6 1 8 -5 4 -5 -3 -13 0 -15 6 -4 10 -6
10 -6 1z"/>
<path d="M5624 1696 c11 -9 24 -16 30 -16 12 0 7 5 -24 19 -24 11 -24 11 -6
-3z"/>
<path d="M5674 1686 c3 -16 8 -31 11 -35 3 -3 4 7 1 23 -3 16 -8 31 -11 35 -3
3 -4 -7 -1 -23z"/>
<path d="M5782 1685 c6 -14 15 -25 20 -25 5 0 1 11 -8 25 -9 14 -18 25 -20 25
-2 0 2 -11 8 -25z"/>
<path d="M5566 1685 c-9 -26 -7 -32 5 -12 6 10 9 21 6 23 -2 3 -7 -2 -11 -11z"/>
<path d="M5593 1678 c-2 -16 1 -18 10 -9 7 7 8 14 1 21 -6 6 -10 2 -11 -12z"/>
<path d="M5931 1693 c-1 -18 13 -23 29 -11 12 8 12 9 -2 5 -9 -3 -19 -1 -22 6
-3 9 -5 9 -5 0z"/>
<path d="M6075 1691 c-3 -5 -2 -12 3 -15 5 -3 9 1 9 9 0 17 -3 19 -12 6z"/>
<path d="M3405 1680 c-3 -6 1 -7 9 -4 18 7 21 14 7 14 -6 0 -13 -4 -16 -10z"/>
<path d="M5533 1678 c3 -9 1 -19 -6 -22 -9 -3 -9 -5 0 -5 18 -1 23 13 11 29
-8 12 -9 12 -5 -2z"/>
<path d="M5740 1680 c-8 -5 -10 -10 -5 -10 6 0 17 5 25 10 8 5 11 10 5 10 -5
0 -17 -5 -25 -10z"/>
<path d="M5910 1681 c0 -6 4 -13 10 -16 6 -3 7 1 4 9 -7 18 -14 21 -14 7z"/>
<path d="M3867 1669 c7 -7 15 -10 18 -7 3 3 -2 9 -12 12 -14 6 -15 5 -6 -5z"/>
<path d="M5436 1653 c-6 -14 -5 -15 5 -6 7 7 10 15 7 18 -3 3 -9 -2 -12 -12z"/>
<path d="M5616 1662 c-2 -4 1 -16 5 -27 9 -19 9 -19 5 2 -3 16 1 21 15 20 11
-1 19 -7 19 -14 0 -7 5 -13 10 -13 7 0 7 6 1 18 -9 17 -47 27 -55 14z"/>
<path d="M5868 1663 c7 -3 16 -2 19 1 4 3 -2 6 -13 5 -11 0 -14 -3 -6 -6z"/>
<path d="M5961 1656 c-9 -11 -9 -16 1 -22 7 -4 10 -4 6 1 -4 4 -3 14 3 22 6 7
9 13 6 13 -2 0 -10 -6 -16 -14z"/>
<path d="M3551 1650 c0 -8 4 -22 9 -30 12 -18 12 -2 0 25 -6 13 -9 15 -9 5z"/>
<path d="M5390 1651 c0 -7 -4 -9 -10 -6 -5 3 -10 2 -10 -3 0 -5 12 -9 26 -9
14 0 22 2 18 6 -5 3 -12 10 -16 15 -5 5 -8 4 -8 -3z"/>
<path d="M5720 1655 c0 -5 5 -17 10 -25 5 -8 10 -10 10 -5 0 6 -5 17 -10 25
-5 8 -10 11 -10 5z"/>
<path d="M5895 1650 c-4 -6 -10 -8 -15 -5 -10 6 -7 -21 4 -32 4 -4 6 -1 4 7
-1 8 2 14 8 13 6 -1 11 5 11 13 0 17 -4 18 -12 4z"/>
<path d="M3800 1643 c1 -18 18 -35 24 -24 4 6 2 11 -4 11 -6 0 -8 5 -5 10 3 6
1 10 -4 10 -6 0 -11 -3 -11 -7z"/>
<path d="M4044 1638 c-4 -6 -3 -8 4 -4 6 3 17 0 25 -9 13 -13 16 -13 22 2 3
10 3 14 -1 11 -4 -4 -15 -3 -25 2 -12 7 -20 6 -25 -2z"/>
<path d="M5300 1640 c-12 -7 -10 -9 7 -7 12 0 19 5 17 9 -6 10 -6 10 -24 -2z"/>
<path d="M5460 1640 c0 -5 5 -10 10 -10 6 0 10 5 10 10 0 6 -4 10 -10 10 -5 0
-10 -4 -10 -10z"/>
<path d="M5550 1641 c0 -10 19 -25 25 -20 1 2 -3 10 -11 17 -8 7 -14 8 -14 3z"/>
<path d="M5756 1641 c-3 -4 6 -7 19 -7 14 0 22 2 19 5 -8 8 -34 10 -38 2z"/>
<path d="M5830 1641 c0 -5 8 -15 18 -22 15 -12 16 -12 5 2 -7 9 -10 19 -6 22
3 4 1 7 -5 7 -7 0 -12 -4 -12 -9z"/>
<path d="M3393 1625 c0 -8 4 -12 9 -9 5 3 6 10 3 15 -9 13 -12 11 -12 -6z"/>
<path d="M3654 1614 c-13 -19 -14 -28 -5 -37 10 -9 11 -8 5 7 -5 13 -4 17 4
12 8 -5 10 -1 5 11 -6 17 -6 17 14 0 17 -15 23 -16 29 -5 4 7 4 10 0 6 -10 -8
-36 14 -29 25 12 20 -9 4 -23 -19z"/>
<path d="M5510 1630 c0 -5 7 -10 16 -10 9 0 12 -5 8 -12 -4 -7 -3 -8 4 -4 16
10 15 14 -8 26 -14 7 -20 7 -20 0z"/>
<path d="M5595 1631 c-3 -5 -2 -12 3 -15 5 -3 9 1 9 9 0 17 -3 19 -12 6z"/>
<path d="M3425 1619 c-3 -4 2 -6 10 -5 21 3 28 13 10 13 -9 0 -18 -4 -20 -8z"/>
<path d="M3473 1610 c-1 -11 2 -20 7 -20 4 0 7 7 6 15 -3 23 -12 26 -13 5z"/>
<path d="M3534 1622 c3 -5 0 -13 -6 -15 -9 -4 -10 -6 -1 -6 17 -1 25 16 12 25
-7 4 -9 3 -5 -4z"/>
<path d="M3604 1619 c-4 -7 -3 -9 4 -5 5 3 13 0 15 -6 4 -9 6 -10 6 -1 1 17
-16 25 -25 12z"/>
<path d="M5175 1620 c3 -5 8 -10 11 -10 2 0 4 5 4 10 0 6 -5 10 -11 10 -5 0
-7 -4 -4 -10z"/>
<path d="M5339 1628 c0 -2 -2 -14 -5 -28 -3 -18 -2 -21 5 -10 5 8 7 18 4 23
-3 5 5 6 18 2 19 -5 21 -4 9 4 -14 10 -29 14 -31 9z"/>
<path d="M5430 1620 c0 -5 5 -10 10 -10 6 0 10 5 10 10 0 6 -4 10 -10 10 -5 0
-10 -4 -10 -10z"/>
<path d="M5104 1605 c-10 -8 -14 -15 -8 -15 6 0 17 7 24 15 16 19 9 19 -16 0z"/>
<path d="M5128 1596 c-16 -22 -16 -24 -1 -22 9 2 18 12 20 24 4 27 2 27 -19
-2z"/>
<path d="M5216 1605 c-3 -8 -1 -15 4 -15 6 0 10 7 10 15 0 8 -2 15 -4 15 -2 0
-6 -7 -10 -15z"/>
<path d="M5264 1605 c-10 -8 -14 -15 -9 -15 6 -1 1 -6 -10 -11 l-20 -9 20 3
c11 2 19 9 18 15 -2 7 4 12 12 12 8 0 15 5 15 10 0 13 -3 13 -26 -5z"/>
<path d="M5311 1604 c0 -11 3 -14 6 -6 3 7 2 16 -1 19 -3 4 -6 -2 -5 -13z"/>
<path d="M5770 1616 c0 -2 8 -10 18 -17 15 -13 16 -12 3 4 -13 16 -21 21 -21
13z"/>
<path d="M5814 1600 c0 -13 4 -16 10 -10 7 7 7 13 0 20 -6 6 -10 3 -10 -10z"/>
<path d="M3310 1600 c0 -5 5 -10 11 -10 5 0 7 5 4 10 -3 6 -8 10 -11 10 -2 0
-4 -4 -4 -10z"/>
<path d="M3975 1600 c3 -5 11 -10 16 -10 6 0 7 5 4 10 -3 6 -11 10 -16 10 -6
0 -7 -4 -4 -10z"/>
<path d="M4944 1598 c3 -15 26 -23 26 -8 0 6 -4 9 -9 6 -5 -4 -12 -1 -14 4 -3
6 -4 5 -3 -2z"/>
<path d="M4990 1593 c7 -16 18 -22 33 -19 23 3 31 28 9 32 -7 1 -8 0 -2 -3 5
-2 10 -8 10 -13 0 -13 -34 -6 -48 10 -11 13 -11 11 -2 -7z"/>
<path d="M5161 1594 c0 -11 3 -14 6 -6 3 7 2 16 -1 19 -3 4 -6 -2 -5 -13z"/>
<path d="M5560 1600 c-8 -5 -10 -10 -5 -10 6 0 17 5 25 10 8 5 11 10 5 10 -5
0 -17 -5 -25 -10z"/>
<path d="M5616 1593 c-6 -14 -5 -15 5 -6 7 7 10 15 7 18 -3 3 -9 -2 -12 -12z"/>
<path d="M5647 1599 c7 -7 15 -10 18 -7 3 3 -2 9 -12 12 -14 6 -15 5 -6 -5z"/>
<path d="M5713 1593 c0 -11 7 -20 14 -20 10 0 10 4 1 16 -7 9 -13 18 -15 20
-1 2 -1 -5 0 -16z"/>
<path d="M3551 1587 c-8 -10 -7 -14 2 -14 8 0 14 6 14 14 0 7 -1 13 -2 13 -2
0 -8 -6 -14 -13z"/>
<path d="M3586 1583 c-6 -14 -5 -15 5 -6 7 7 10 15 7 18 -3 3 -9 -2 -12 -12z"/>
<path d="M3798 1593 c7 -3 16 -2 19 1 4 3 -2 6 -13 5 -11 0 -14 -3 -6 -6z"/>
<path d="M4412 1576 c6 -14 15 -26 20 -26 10 0 -7 36 -22 45 -6 4 -5 -5 2 -19z"/>
<path d="M4511 1593 c-1 -18 19 -27 32 -13 9 10 8 12 -5 7 -9 -3 -19 -1 -22 6
-3 9 -5 9 -5 0z"/>
<path d="M4592 1584 c10 -10 20 -16 22 -13 3 3 -5 11 -17 18 -21 13 -21 12 -5
-5z"/>
<path d="M5190 1591 c0 -10 19 -25 25 -20 1 2 -3 10 -11 17 -8 7 -14 8 -14 3z"/>
<path d="M5390 1590 c-8 -5 -10 -10 -5 -10 6 0 17 5 25 10 8 5 11 10 5 10 -5
0 -17 -5 -25 -10z"/>
<path d="M3510 1579 c0 -5 5 -7 10 -4 6 3 10 8 10 11 0 2 -4 4 -10 4 -5 0 -10
-5 -10 -11z"/>
<path d="M3710 1584 c0 -5 7 -18 15 -28 8 -11 15 -16 15 -10 0 5 -7 18 -15 28
-8 11 -15 16 -15 10z"/>
<path d="M3750 1580 c0 -5 7 -6 17 -3 12 5 14 3 8 -7 -5 -9 -4 -11 4 -6 6 4 9
12 6 17 -8 12 -35 12 -35 -1z"/>
<path d="M4310 1580 c0 -5 5 -10 10 -10 6 0 10 5 10 10 0 6 -4 10 -10 10 -5 0
-10 -4 -10 -10z"/>
<path d="M4790 1579 c0 -5 4 -8 9 -5 5 3 11 -1 15 -9 3 -8 10 -15 16 -15 5 0
2 9 -7 20 -19 22 -33 26 -33 9z"/>
<path d="M4916 1574 c-8 -20 -8 -24 2 -24 4 0 8 9 9 20 2 24 -3 26 -11 4z"/>
<path d="M5296 1577 c3 -10 9 -15 12 -12 3 3 0 11 -7 18 -10 9 -11 8 -5 -6z"/>
<path d="M5350 1579 c0 -5 5 -7 10 -4 6 3 10 8 10 11 0 2 -4 4 -10 4 -5 0 -10
-5 -10 -11z"/>
<path d="M5433 1568 c-2 -18 0 -20 7 -8 12 18 13 30 2 30 -4 0 -9 -10 -9 -22z"/>
<path d="M5935 1579 c-3 -4 2 -6 10 -5 21 3 28 13 10 13 -9 0 -18 -4 -20 -8z"/>
<path d="M3814 1572 c-9 -5 -8 -10 1 -19 11 -10 13 -9 12 7 -1 11 -1 20 -2 20
0 0 -5 -4 -11 -8z"/>
<path d="M4000 1572 c40 -18 57 -36 53 -56 -3 -20 -3 -20 6 -1 7 16 3 25 -18
42 -14 12 -33 22 -41 22 -13 0 -13 -1 0 -7z"/>
<path d="M4233 1565 c0 -8 4 -15 9 -15 4 0 8 7 8 15 0 8 -4 15 -8 15 -5 0 -9
-7 -9 -15z"/>
<path d="M4480 1573 c8 -3 22 -11 30 -17 13 -10 13 -9 1 7 -7 9 -21 17 -30 16
-13 0 -14 -1 -1 -6z"/>
<path d="M3475 1560 c3 -5 8 -10 11 -10 2 0 4 5 4 10 0 6 -5 10 -11 10 -5 0
-7 -4 -4 -10z"/>
<path d="M3596 1553 c-6 -14 -5 -15 5 -6 7 7 10 15 7 18 -3 3 -9 -2 -12 -12z"/>
<path d="M3680 1560 c-12 -7 -10 -9 7 -7 12 0 19 5 17 9 -6 10 -6 10 -24 -2z"/>
<path d="M3906 1557 c3 -10 9 -15 12 -12 3 3 0 11 -7 18 -10 9 -11 8 -5 -6z"/>
<path d="M4070 1560 c0 -6 7 -13 15 -16 8 -4 12 -11 8 -17 -3 -6 -1 -7 5 -3
15 9 15 9 -8 29 -11 9 -20 12 -20 7z"/>
<path d="M4130 1560 c0 -5 5 -10 10 -10 6 0 10 5 10 10 0 6 -4 10 -10 10 -5 0
-10 -4 -10 -10z"/>
<path d="M4537 1558 c-7 -5 0 -6 17 -4 16 3 31 7 33 10 8 8 -37 2 -50 -6z"/>
<path d="M4670 1558 c0 -6 3 -8 7 -5 3 4 11 -1 18 -10 9 -13 14 -13 20 -3 5 8
4 11 -2 7 -6 -4 -13 0 -17 8 -6 18 -26 20 -26 3z"/>
<path d="M4970 1560 c0 -5 5 -10 10 -10 6 0 10 5 10 10 0 6 -4 10 -10 10 -5 0
-10 -4 -10 -10z"/>
<path d="M5045 1560 c-3 -6 1 -7 9 -4 18 7 21 14 7 14 -6 0 -13 -4 -16 -10z"/>
<path d="M5170 1560 c0 -5 5 -10 10 -10 6 0 10 5 10 10 0 6 -4 10 -10 10 -5 0
-10 -4 -10 -10z"/>
<path d="M5260 1560 c-8 -5 -10 -10 -5 -10 6 0 17 5 25 10 8 5 11 10 5 10 -5
0 -17 -5 -25 -10z"/>
<path d="M5373 1555 c0 -8 4 -12 9 -9 4 3 8 9 8 15 0 5 -4 9 -8 9 -5 0 -9 -7
-9 -15z"/>
<path d="M5476 1561 c-3 -5 2 -15 12 -22 15 -12 16 -12 5 2 -7 9 -10 19 -6 22
3 4 4 7 0 7 -3 0 -8 -4 -11 -9z"/>
<path d="M5633 1553 c0 -9 4 -10 14 -2 7 6 13 12 13 14 0 1 -6 2 -13 2 -8 0
-14 -6 -14 -14z"/>
<path d="M4152 1536 c-10 -22 -9 -24 10 -21 11 3 23 7 27 11 3 4 -2 4 -12 1
-15 -6 -17 -3 -12 13 9 28 0 25 -13 -4z"/>
<path d="M4584 1544 c-18 -14 -18 -15 4 -4 12 6 22 13 22 15 0 8 -5 6 -26 -11z"/>
<path d="M3953 1531 c0 -11 5 -18 9 -15 4 3 5 11 1 19 -7 21 -12 19 -10 -4z"/>
<path d="M3990 1540 c0 -5 7 -6 17 -3 12 5 14 3 8 -7 -5 -9 -4 -11 4 -6 6 4 9
12 6 17 -8 12 -35 12 -35 -1z"/>
<path d="M4392 1530 c-18 -29 -15 -38 4 -12 9 13 14 25 12 27 -2 2 -9 -5 -16
-15z"/>
<path d="M4615 1541 c-3 -5 0 -13 6 -17 7 -4 9 -3 5 4 -3 5 0 13 6 15 9 4 10
6 1 6 -6 1 -14 -3 -18 -8z"/>
<path d="M4654 1542 c3 -5 0 -13 -6 -15 -9 -4 -10 -6 -1 -6 17 -1 25 16 12 25
-7 4 -9 3 -5 -4z"/>
<path d="M4750 1540 c-13 -8 -12 -10 3 -10 9 0 17 5 17 10 0 12 -1 12 -20 0z"/>
<path d="M4791 1527 c-13 -21 -12 -21 5 -5 10 10 16 20 13 22 -3 3 -11 -5 -18
-17z"/>
<path d="M4893 1543 c4 -6 1 -14 -5 -16 -10 -4 -10 -6 0 -6 7 -1 10 -6 6 -13
-4 -6 -3 -8 4 -5 12 8 10 32 -3 44 -4 4 -5 3 -2 -4z"/>
<path d="M4939 1548 c-8 -26 -5 -36 9 -31 11 5 13 3 7 -8 -5 -8 -4 -11 0 -6
16 14 14 36 -3 30 -10 -4 -13 -2 -8 5 4 7 5 12 2 12 -3 0 -6 -1 -7 -2z"/>
<path d="M5055 1540 c-3 -6 1 -7 9 -4 18 7 21 14 7 14 -6 0 -13 -4 -16 -10z"/>
<path d="M5199 1548 c-5 -18 -6 -39 -2 -34 4 3 11 1 18 -4 8 -7 12 -5 12 5 0
7 -3 14 -6 13 -19 -2 -24 4 -11 12 10 6 11 10 3 10 -7 0 -13 -1 -14 -2z"/>
<path d="M5854 1542 c4 -3 14 -7 22 -8 9 -1 13 0 10 4 -4 3 -14 7 -22 8 -9 1
-13 0 -10 -4z"/>
<path d="M3656 1527 c3 -10 9 -15 12 -12 3 3 0 11 -7 18 -10 9 -11 8 -5 -6z"/>
<path d="M3691 1527 c-8 -10 -7 -14 2 -14 8 0 14 6 14 14 0 7 -1 13 -2 13 -2
0 -8 -6 -14 -13z"/>
<path d="M3874 1532 c4 -7 2 -21 -5 -30 -12 -15 -11 -15 6 0 16 15 17 20 6 30
-11 11 -13 10 -7 0z"/>
<path d="M4119 1533 c0 -5 -2 -16 -4 -25 -2 -10 0 -20 4 -22 3 -2 7 9 7 25 1
16 0 29 -2 29 -2 0 -4 -3 -5 -7z"/>
<path d="M4517 1525 c-4 -8 -3 -16 1 -19 4 -3 9 4 9 15 2 23 -3 25 -10 4z"/>
<path d="M4986 1524 c-9 -24 -2 -26 12 -4 7 11 8 20 3 20 -5 0 -12 -7 -15 -16z"/>
<path d="M5465 1520 c10 -11 20 -20 23 -20 3 0 -3 9 -13 20 -10 11 -20 20 -23
20 -3 0 3 -9 13 -20z"/>
<path d="M3610 1519 c0 -5 5 -7 10 -4 6 3 10 8 10 11 0 2 -4 4 -10 4 -5 0 -10
-5 -10 -11z"/>
<path d="M3791 1527 c2 -2 11 -8 20 -15 12 -9 16 -9 16 1 0 7 -9 14 -20 14
-11 1 -18 1 -16 0z"/>
<path d="M3924 1519 c-3 -6 -2 -15 3 -20 5 -5 9 -1 9 11 0 23 -2 24 -12 9z"/>
<path d="M4290 1523 c0 -5 14 -9 31 -9 35 -2 33 5 -5 12 -14 2 -26 1 -26 -3z"/>
<path d="M4420 1520 c0 -5 7 -7 15 -4 8 4 15 8 15 10 0 2 -7 4 -15 4 -8 0 -15
-4 -15 -10z"/>
<path d="M4715 1520 c-3 -5 -1 -10 4 -10 6 0 11 5 11 10 0 6 -2 10 -4 10 -3 0
-8 -4 -11 -10z"/>
<path d="M4822 1513 c-16 -13 -15 -13 3 -5 11 5 26 7 33 5 6 -3 12 -1 12 5 0
13 -28 11 -48 -5z"/>
<path d="M4540 1516 c0 -2 11 -6 25 -8 13 -3 22 -1 19 3 -5 9 -44 13 -44 5z"/>
<path d="M5016 1512 c-2 -4 4 -8 14 -8 10 0 16 4 14 8 -3 4 -9 8 -14 8 -5 0
-11 -4 -14 -8z"/>
<path d="M5095 1510 c-3 -6 1 -7 9 -4 18 7 21 14 7 14 -6 0 -13 -4 -16 -10z"/>
<path d="M5435 1511 c-3 -5 -2 -12 3 -15 5 -3 9 1 9 9 0 17 -3 19 -12 6z"/>
<path d="M6555 1511 c-3 -5 -2 -12 3 -15 5 -3 9 1 9 9 0 17 -3 19 -12 6z"/>
<path d="M3526 1502 c-3 -5 1 -9 9 -9 8 0 12 4 9 9 -3 4 -7 8 -9 8 -2 0 -6 -4
-9 -8z"/>
<path d="M3756 1498 c3 -5 10 -6 15 -3 13 9 11 12 -6 12 -8 0 -12 -4 -9 -9z"/>
<path d="M4175 1500 c-5 -9 -4 -11 3 -6 7 4 12 1 12 -8 0 -20 14 -21 29 -2 8
10 9 16 1 21 -6 4 -10 3 -9 -2 4 -21 -2 -25 -14 -8 -11 14 -16 15 -22 5z"/>
<path d="M4275 1500 c6 -10 3 -12 -11 -7 -18 7 -18 6 -2 -6 10 -8 16 -17 13
-20 -3 -4 -2 -5 2 -2 12 9 12 34 1 42 -7 4 -8 1 -3 -7z"/>
<path d="M4468 1503 c7 -3 16 -2 19 1 4 3 -2 6 -13 5 -11 0 -14 -3 -6 -6z"/>
<path d="M4748 1492 c3 -9 1 -13 -5 -9 -5 3 -10 0 -10 -8 0 -17 14 -10 26 14
7 13 6 18 -4 18 -7 0 -11 -7 -7 -15z"/>
<path d="M5610 1499 c0 -5 5 -7 10 -4 6 3 10 8 10 11 0 2 -4 4 -10 4 -5 0 -10
-5 -10 -11z"/>
<path d="M3891 1487 c-8 -10 -7 -14 2 -14 8 0 14 6 14 14 0 7 -1 13 -2 13 -2
0 -8 -6 -14 -13z"/>
<path d="M4495 1490 c-4 -6 -11 -7 -17 -4 -7 4 -8 2 -4 -5 6 -9 11 -9 22 0 14
11 18 19 10 19 -3 0 -8 -5 -11 -10z"/>
<path d="M4617 1489 c7 -7 15 -10 18 -7 3 3 -2 9 -12 12 -14 6 -15 5 -6 -5z"/>
<path d="M5179 1488 c15 -21 31 -23 31 -6 0 6 -3 8 -7 5 -3 -4 -13 -1 -22 6
-14 11 -14 10 -2 -5z"/>
<path d="M3993 1473 c0 -9 4 -10 14 -2 7 6 13 12 13 14 0 1 -6 2 -13 2 -8 0
-14 -6 -14 -14z"/>
<path d="M4070 1480 c0 -5 5 -10 11 -10 5 0 7 5 4 10 -3 6 -8 10 -11 10 -2 0
-4 -4 -4 -10z"/>
<path d="M4376 1473 c-6 -14 -5 -15 5 -6 7 7 10 15 7 18 -3 3 -9 -2 -12 -12z"/>
<path d="M4511 1467 c-13 -21 -12 -21 5 -5 10 10 16 20 13 22 -3 3 -11 -5 -18
-17z"/>
<path d="M4582 1477 c-8 -10 -6 -13 7 -13 11 0 17 6 14 13 -3 7 -6 13 -8 13
-1 0 -7 -6 -13 -13z"/>
<path d="M4797 1475 c-4 -8 -3 -16 1 -19 4 -3 9 4 9 15 2 23 -3 25 -10 4z"/>
<path d="M4915 1480 c3 -5 8 -10 11 -10 2 0 4 5 4 10 0 6 -5 10 -11 10 -5 0
-7 -4 -4 -10z"/>
<path d="M4997 1472 c-15 -16 -15 -19 -2 -19 8 0 13 3 10 5 -3 3 0 11 6 19 17
20 5 16 -14 -5z"/>
<path d="M5033 1472 c2 -12 9 -28 17 -35 10 -10 11 -9 4 3 -5 8 -9 21 -10 28
-2 8 -5 17 -8 20 -4 3 -5 -4 -3 -16z"/>
<path d="M4306 1465 c-11 -8 -15 -15 -9 -15 6 0 16 7 23 15 16 19 11 19 -14 0z"/>
<path d="M4874 1466 c1 -8 5 -18 8 -22 4 -3 5 1 4 10 -1 8 -5 18 -8 22 -4 3
-5 -1 -4 -10z"/>
<path d="M5155 1471 c-3 -5 -2 -12 3 -15 5 -3 9 1 9 9 0 17 -3 19 -12 6z"/>
<path d="M4156 1455 c-9 -26 -7 -32 5 -12 6 10 9 21 6 23 -2 3 -7 -2 -11 -11z"/>
<path d="M4225 1459 c-3 -4 2 -6 10 -5 21 3 28 13 10 13 -9 0 -18 -4 -20 -8z"/>
<path d="M4467 1459 c7 -7 15 -10 18 -7 3 3 -2 9 -12 12 -14 6 -15 5 -6 -5z"/>
<path d="M4625 1459 c-3 -4 2 -6 10 -5 21 3 28 13 10 13 -9 0 -18 -4 -20 -8z"/>
<path d="M5536 1462 c-2 -4 -1 -14 4 -22 7 -11 9 -9 7 8 -1 24 -3 26 -11 14z"/>
<path d="M5635 1461 c-3 -5 -2 -12 3 -15 5 -3 9 1 9 9 0 17 -3 19 -12 6z"/>
<path d="M4331 1447 c-8 -10 -7 -14 2 -14 8 0 14 6 14 14 0 7 -1 13 -2 13 -2
0 -8 -6 -14 -13z"/>
<path d="M4415 1450 c-4 -6 -10 -8 -14 -6 -4 3 -8 -1 -8 -9 0 -10 4 -12 12 -5
7 5 14 8 17 5 2 -3 5 2 5 10 0 18 -3 19 -12 5z"/>
<path d="M4529 1443 c-13 -16 -12 -17 4 -4 16 13 21 21 13 21 -2 0 -10 -8 -17
-17z"/>
<path d="M5190 1456 c0 -2 8 -10 18 -17 15 -13 16 -12 3 4 -13 16 -21 21 -21
13z"/>
<path d="M5433 1445 c0 -8 4 -12 9 -9 5 3 6 10 3 15 -9 13 -12 11 -12 -6z"/>
<path d="M6113 1445 c0 -8 4 -12 9 -9 5 3 6 10 3 15 -9 13 -12 11 -12 -6z"/>
<path d="M6755 1449 c-4 -6 -5 -12 -2 -15 2 -3 7 2 10 11 7 17 1 20 -8 4z"/>
<path d="M3930 1439 c0 -5 5 -7 10 -4 6 3 10 8 10 11 0 2 -4 4 -10 4 -5 0 -10
-5 -10 -11z"/>
<path d="M3995 1441 c-3 -5 -2 -12 3 -15 5 -3 9 1 9 9 0 17 -3 19 -12 6z"/>
<path d="M4273 1435 c0 -8 4 -12 9 -9 5 3 6 10 3 15 -9 13 -12 11 -12 -6z"/>
<path d="M5480 1435 c-7 -9 -11 -17 -9 -20 3 -2 10 5 17 15 14 24 10 26 -8 5z"/>
<path d="M3890 1420 c0 -5 5 -10 11 -10 5 0 7 5 4 10 -3 6 -8 10 -11 10 -2 0
-4 -4 -4 -10z"/>
<path d="M4507 1419 c7 -7 15 -10 18 -7 3 3 -2 9 -12 12 -14 6 -15 5 -6 -5z"/>
<path d="M4747 1419 c7 -7 15 -10 18 -7 3 3 -2 9 -12 12 -14 6 -15 5 -6 -5z"/>
<path d="M4935 1420 c3 -5 8 -10 11 -10 2 0 4 5 4 10 0 6 -5 10 -11 10 -5 0
-7 -4 -4 -10z"/>
<path d="M5275 1419 c-3 -4 2 -6 10 -5 21 3 28 13 10 13 -9 0 -18 -4 -20 -8z"/>
<path d="M4019 1408 c-5 -18 -6 -38 -1 -34 7 8 12 36 6 36 -2 0 -4 -1 -5 -2z"/>
<path d="M4126 1398 c3 -5 10 -6 15 -3 13 9 11 12 -6 12 -8 0 -12 -4 -9 -9z"/>
<path d="M4275 1401 c-3 -5 -2 -12 3 -15 5 -3 9 1 9 9 0 17 -3 19 -12 6z"/>
<path d="M4306 1402 c-3 -5 1 -9 9 -9 8 0 15 4 15 9 0 4 -4 8 -9 8 -6 0 -12
-4 -15 -8z"/>
<path d="M4350 1401 c0 -6 4 -13 10 -16 6 -3 7 1 4 9 -7 18 -14 21 -14 7z"/>
<path d="M5015 1391 c-3 -5 -2 -12 3 -15 5 -3 9 1 9 9 0 17 -3 19 -12 6z"/>
<path d="M3914 1382 c4 -3 14 -7 22 -8 9 -1 13 0 10 4 -4 3 -14 7 -22 8 -9 1
-13 0 -10 -4z"/>
<path d="M4050 1380 c0 -5 5 -10 11 -10 5 0 7 5 4 10 -3 6 -8 10 -11 10 -2 0
-4 -4 -4 -10z"/>
<path d="M4655 1380 c-3 -5 -1 -10 4 -10 6 0 11 5 11 10 0 6 -2 10 -4 10 -3 0
-8 -4 -11 -10z"/>
<path d="M4690 1379 c0 -5 5 -7 10 -4 6 3 10 8 10 11 0 2 -4 4 -10 4 -5 0 -10
-5 -10 -11z"/>
<path d="M4730 1380 c0 -5 5 -10 11 -10 5 0 7 5 4 10 -3 6 -8 10 -11 10 -2 0
-4 -4 -4 -10z"/>
<path d="M4775 1380 c3 -5 8 -10 11 -10 2 0 4 5 4 10 0 6 -5 10 -11 10 -5 0
-7 -4 -4 -10z"/>
<path d="M4916 1382 c-3 -5 1 -9 9 -9 8 0 12 4 9 9 -3 4 -7 8 -9 8 -2 0 -6 -4
-9 -8z"/>
<path d="M5190 1381 c0 -6 4 -13 10 -16 6 -3 7 1 4 9 -7 18 -14 21 -14 7z"/>
<path d="M3755 1361 c-3 -5 -2 -12 3 -15 5 -3 9 1 9 9 0 17 -3 19 -12 6z"/>
<path d="M4499 1368 c-5 -18 -6 -38 -1 -34 7 8 12 36 6 36 -2 0 -4 -1 -5 -2z"/>
<path d="M4850 1360 c0 -5 5 -10 11 -10 5 0 7 5 4 10 -3 6 -8 10 -11 10 -2 0
-4 -4 -4 -10z"/>
<path d="M5056 1362 c-3 -5 1 -9 9 -9 8 0 12 4 9 9 -3 4 -7 8 -9 8 -2 0 -6 -4
-9 -8z"/>
<path d="M4235 1350 c-4 -6 -11 -7 -17 -4 -7 4 -8 2 -4 -5 6 -9 11 -9 22 0 14
11 18 19 10 19 -3 0 -8 -5 -11 -10z"/>
<path d="M4133 1329 c-2 -23 3 -25 10 -4 4 8 3 16 -1 19 -4 3 -9 -4 -9 -15z"/>
<path d="M4335 1319 c-3 -4 2 -6 10 -5 21 3 28 13 10 13 -9 0 -18 -4 -20 -8z"/>
<path d="M4395 1320 c-3 -5 -1 -10 4 -10 6 0 11 5 11 10 0 6 -2 10 -4 10 -3 0
-8 -4 -11 -10z"/>
<path d="M4756 1318 c3 -5 10 -6 15 -3 13 9 11 12 -6 12 -8 0 -12 -4 -9 -9z"/>
<path d="M5553 1285 c0 -8 4 -12 9 -9 5 3 6 10 3 15 -9 13 -12 11 -12 -6z"/>
<path d="M4830 1280 c0 -5 5 -10 11 -10 5 0 7 5 4 10 -3 6 -8 10 -11 10 -2 0
-4 -4 -4 -10z"/>
<path d="M5350 1201 c0 -6 4 -12 8 -15 5 -3 9 1 9 9 0 8 -4 15 -9 15 -4 0 -8
-4 -8 -9z"/>
</g>
</svg>
